<svg xmlns="http://www.w3.org/2000/svg" width="108" height="108" viewBox="0 0 108 108">
    <defs>
        <filter id="u7jjxg00na">
            <feColorMatrix in="SourceGraphic" values="0 0 0 0 0.529412 0 0 0 0 0.529412 0 0 0 0 0.541176 0 0 0 1.000000 0"/>
        </filter>
    </defs>
    <g fill="none" fill-rule="evenodd">
        <g>
            <g transform="translate(-153 -301) translate(153 301)">
                <rect width="108" height="108" rx="28"/>
                <g filter="url(#u7jjxg00na)">
                    <g fill="#000" fill-rule="nonzero">
                        <path d="M82.162 0H19.838C17.722 0 16 1.734 16 3.866v7.176h48.366c6.007 0 10.894 4.922 10.894 10.973V48h6.902C84.278 48 86 46.266 86 44.134V3.866C86 1.734 84.278 0 82.162 0z" transform="translate(12 14)"/>
                        <path d="M64.133 16H5.867C2.632 16 0 18.673 0 21.959v36.48c0 3.286 2.632 5.96 5.867 5.96h8.346V76l17.061-11.602h32.86c3.234 0 5.866-2.673 5.866-5.959V21.96C70 18.673 67.368 16 64.133 16zM48.308 42.62L35 55.726l-13.303-13.1c-1.974-1.956-3.058-4.566-3.058-7.355 0-5.662 4.535-10.267 10.108-10.267 2.29 0 4.49.795 6.253 2.204 1.763-1.409 3.963-2.204 6.252-2.204 5.574 0 10.109 4.605 10.109 10.267 0 2.79-1.084 5.4-3.053 7.35z" transform="translate(12 14)"/>
                    </g>
                </g>
            </g>
        </g>
    </g>
</svg>
