<svg xmlns="http://www.w3.org/2000/svg" width="108" height="108" viewBox="0 0 108 108">
    <defs>
        <filter id="yh6rlk4v7a">
            <feColorMatrix in="SourceGraphic" values="0 0 0 0 0.529412 0 0 0 0 0.529412 0 0 0 0 0.541176 0 0 0 1.000000 0"/>
        </filter>
    </defs>
    <g fill="none" fill-rule="evenodd">
        <g>
            <g transform="translate(-153 -301) translate(153 301)">
                <rect width="108" height="108" rx="28"/>
                <g filter="url(#yh6rlk4v7a)">
                    <g fill="#000" fill-rule="nonzero">
                        <path d="M1.56 5.014C12 13.637 30.315 28.807 35.699 33.537c.722.638 1.497.963 2.302.963.803 0 1.577-.322 2.298-.957C45.686 28.808 64 13.637 74.439 5.014c.65-.536.75-1.477.223-2.132C73.446 1.368 71.632.5 69.69.5H6.311c-1.943 0-3.757.868-4.973 2.382-.526.655-.427 1.596.223 2.132z" transform="translate(16 18.5)"/>
                        <path d="M75.082 14.645c-.562-.257-1.222-.167-1.689.226-11.567 9.655-26.33 22.03-30.976 26.151-2.607 2.317-6.225 2.317-8.838-.003-4.95-4.392-21.53-18.269-30.972-26.148-.47-.393-1.132-.48-1.689-.226-.56.256-.918.807-.918 1.415v39.204c0 3.44 2.84 6.236 6.333 6.236h63.334C73.16 61.5 76 58.703 76 55.264V16.06c0-.608-.359-1.16-.918-1.415z" transform="translate(16 18.5)"/>
                    </g>
                </g>
            </g>
        </g>
    </g>
</svg>
