<svg xmlns="http://www.w3.org/2000/svg" width="108" height="108" viewBox="0 0 108 108">
    <g fill="none" fill-rule="evenodd">
        <g transform="translate(12.896 12.896)">
            <circle cx="41.104" cy="41.104" r="41.104" fill="#222327"/>
            <circle cx="39.099" cy="39.099" r="39.099" fill="#F1001E"/>
            <path fill="#000" d="M55.962 26.188c1.175 1.174 1.175 3.079 0 4.253l-25.52 25.521c-1.175 1.175-3.08 1.175-4.254 0-1.175-1.175-1.175-3.079 0-4.253l25.52-25.521c1.175-1.175 3.08-1.175 4.254 0z"/>
            <path fill="#000" d="M26.188 26.188c1.174-1.175 3.079-1.175 4.253 0l25.521 25.52c1.175 1.175 1.175 3.08 0 4.254-1.175 1.175-3.079 1.175-4.253 0l-25.521-25.52c-1.175-1.175-1.175-3.08 0-4.254z"/>
        </g>
        <path d="M0 0H108V108H0z"/>
    </g>
</svg>
