<svg xmlns="http://www.w3.org/2000/svg" width="108" height="108" viewBox="0 0 108 108">
    <defs>
        <linearGradient id="9f3q0cck2a" x1="49.418%" x2="50%" y1="-112.491%" y2="100%">
            <stop offset="0%" stop-color="#EE04E8"/>
            <stop offset="100%" stop-color="#04CBEE"/>
        </linearGradient>
    </defs>
    <g fill="none" fill-rule="evenodd">
        <path d="M0 0H108V108H0z"/>
        <g transform="translate(10.478 20.955)">
            <path fill="#F9A01B" d="M1.447 56.076c3.226 12.28 69 13.948 75.65 1.182 6.048-11.604-1.683-40.267-6.853-48.552C66.875 3.31 53.391.972 39.615.972 24.581.972 9.201 3.756 6.223 8.39.909 16.671-1.896 43.342 1.447 56.076z"/>
            <path fill="url(#9f3q0cck2a)" d="M75.423 0c-14.383 22.678-14.16 34.017.666 34.017S90.694 22.677 75.423 0z"/>
            <path fill="#101010" fill-rule="nonzero" d="M27.514 51.872c.208.866 1.078 1.4 1.943 1.192 7.511-1.799 16.46-2.428 26.84-1.876.889.047 1.648-.635 1.695-1.524.047-.889-.635-1.648-1.524-1.695-10.672-.567-19.924.083-27.762 1.96-.865.208-1.399 1.078-1.192 1.943z"/>
            <ellipse cx="21.761" cy="26.241" fill="#000" rx="3.385" ry="3.888"/>
            <ellipse cx="55.612" cy="26.241" fill="#000" rx="3.385" ry="3.888"/>
        </g>
    </g>
</svg>
