<svg xmlns="http://www.w3.org/2000/svg" xmlns:xlink="http://www.w3.org/1999/xlink" width="200" height="104" viewBox="0 0 200 104">
    <defs>
        <path id="nkqvrq7kca" d="M0 0.428L63.856 0.428 63.856 75 0 75z"/>
        <path id="cijkt5s3kc" d="M0.425 0.089L63.812 0.089 63.812 74.443 0.425 74.443z"/>
    </defs>
    <g fill="none" fill-rule="evenodd">
        <path fill="#1A2E35" d="M22.702 28.087c-.091.087-.355.441-.733 1.812-.498 1.809-.191 3.458.394 4.641.113-.244.19-.525.244-.79.563-2.763.4-5.263.095-5.663m3.571 1.772c-.14.274-.375.836-.726 1.987-.465 1.524-.468 2.748-.209 3.685.018-.047.035-.094.05-.14.639-1.936.95-4.602.885-5.532m3.89 2.372c-.002 0-.307.002-.991 1.32-.784 1.512-.984 2.755-.611 3.803.045.128.099.254.162.377.29-.128.538-.338.717-.621.759-1.205 1.123-3.68.84-4.648-.057-.197-.117-.231-.118-.231M33.23 41.5c-.033 0-.066-.006-.098-.02-2.441-.98-3.901-1.939-4.66-3.09-.55.115-1.167.039-1.752-.25-.569-.28-1.115-.771-1.508-1.476-.366.293-.818.373-1.315.21-.55-.179-1.124-.66-1.6-1.356-.304.227-.614.262-.843.242-1.612-.136-3.796-3.467-3.953-7.017-.007-.154.109-.287.258-.293.147-.013.277.113.284.268.149 3.368 2.228 6.377 3.455 6.48.2.021.366-.044.506-.157-.737-1.34-1.119-3.253-.555-5.297.466-1.691.878-2.352 1.373-2.23.934.242.812 3.924.317 6.353-.112.551-.274.946-.459 1.229.429.655.935 1.097 1.38 1.242.396.13.69.02.907-.195-.426-1.089-.514-2.574.064-4.467.761-2.493 1.068-2.56 1.251-2.6.129-.03.258.015.35.123.5.587-.098 4.458-.73 6.373-.081.25-.183.467-.302.652.337.685.833 1.151 1.352 1.407.417.206.844.28 1.233.243-.049-.107-.093-.215-.132-.325-.43-1.208-.22-2.603.642-4.265.572-1.102 1.039-1.616 1.468-1.616h.001c.127 0 .366.049.535.372.472.906.13 3.894-.805 5.377-.22.35-.524.615-.876.788.726.99 2.105 1.865 4.31 2.751.14.057.209.22.155.364-.042.112-.145.18-.253.18M55.746 64.382c.032.085.16.31.668.76.851.75 1.626 1.085 2.367 1.007.06-.005.122-.014.183-.025-.04-.167-.124-.32-.249-.452-.806-.844-2.578-1.377-2.97-1.29m-1.999 2.324c.193.136.469.315.863.551.778.464 1.47.678 2.063.723-.95-.562-2.191-1.059-2.926-1.274m.509 3.794c-.874 0-1.793-.19-2.614-.65-.136-.077-.181-.244-.102-.374.08-.132.256-.174.392-.098 2.044 1.146 4.686.346 5.23-.489.063-.097.12-.222.084-.367-.808.082-1.803-.122-2.94-.801-1.458-.87-1.57-1.13-1.56-1.336.005-.122.078-.23.195-.287.57-.276 3.154.861 4.23 1.537.142.089.26.184.357.286.476-.11.845-.346 1.09-.627.168-.192.28-.403.337-.614-.039.006-.077.01-.115.014-.916.088-1.835-.288-2.814-1.151-.673-.594-.934-1.003-.847-1.327.028-.103.119-.287.412-.357.792-.189 2.748.607 3.548 1.445.18.187.303.41.368.647.748-.336 1.538-1.088 2.475-2.336.092-.123.27-.152.4-.064.128.088.158.259.065.382-1.082 1.443-1.984 2.262-2.89 2.596-.036.385-.203.777-.499 1.116-.29.332-.713.617-1.25.772.058.246.006.506-.16.761-.483.742-1.868 1.322-3.392 1.322"/>
        <g transform="translate(.5 27.5)">
            <mask id="tdjz1bmqtb" fill="#fff">
                <use xlink:href="#nkqvrq7kca"/>
            </mask>
            <path fill="#F9A01B" d="M16.804 50.077l14.574-25.504L35.445 46.7l-18.64 3.376zM61.07 42.06l-8.748 1.584L44.381.428 27.502 3.485 0 52.178l2.953 16.068 35.277-6.388L40.646 75l16.877-3.057-2.415-13.142 8.748-1.584L61.07 42.06z" mask="url(#tdjz1bmqtb)"/>
        </g>
        <path fill="#F9A01B" d="M132.053 24.83c-.325-2.974-.92-5.616-1.786-7.927-.866-2.31-2.167-4.575-3.904-6.795-1.738-2.22-4.103-4.146-7.097-5.779-2.994-1.632-6.945-2.768-11.854-3.407-10.218-1.329-18.183.482-23.897 5.43C77.8 11.3 74.04 20.778 72.233 34.788c-.735 5.698-.917 10.965-.546 15.802.37 4.836 1.26 8.725 2.669 11.67 1.928 4.135 4.656 7.438 8.183 9.906 3.526 2.47 8.357 4.103 14.495 4.901 10.946 1.424 19.058-.674 24.337-6.292 5.277-5.618 8.779-15.114 10.504-28.488.77-5.965.828-11.785.178-17.459"/>
        <path fill="#101010" d="M102.078 71.477c-1.351-.046-2.79-.167-4.275-.36-5.144-.667-9.124-1.964-11.83-3.855-2.67-1.865-4.69-4.32-6.178-7.504l-.027-.058c-1.08-2.252-1.787-5.46-2.1-9.531-.339-4.415-.165-9.331.517-14.611 2.006-15.517 6.149-21.99 9.27-24.689 3.641-3.146 8.554-4.567 15.02-4.347 1.326.045 2.73.163 4.172.35 4.15.539 7.434 1.454 9.76 2.719 2.253 1.227 4.014 2.636 5.232 4.19 1.351 1.722 2.363 3.467 3.009 5.188.687 1.83 1.172 4.007 1.441 6.47.599 5.21.543 10.609-.164 16.076-1.559 12.056-4.568 20.528-8.946 25.178-3.248 3.45-8.122 5.016-14.9 4.785h-.001"/>
        <path fill="#F9A01B" d="M98.217 31.843c-4.605-.158-8.212-4.02-8.054-8.626.158-4.611 4.02-8.217 8.626-8.06 4.605.158 8.212 4.02 8.054 8.631-.158 4.606-4.02 8.212-8.626 8.055zm14.21-6.813l.073-2.104-1.291-.421c-.053-.718-.174-1.429-.345-2.112l1.095-.807-.744-1.975-1.353.109c-.323-.639-.702-1.247-1.127-1.817l.701-1.17-1.442-1.538-1.21.62c-.545-.464-1.12-.884-1.734-1.255l.196-1.343-1.92-.871-.88 1.031c-.67-.217-1.365-.38-2.083-.488l-.328-1.317-2.108-.072-.417 1.29c-.724.06-1.428.174-2.111.345l-.813-1.089-1.975.738.109 1.354c-.64.329-1.247.707-1.817 1.133l-1.165-.702-1.543 1.436.62 1.216c-.463.54-.883 1.12-1.249 1.735l-1.343-.202-.877 1.92 1.037.88c-.217.67-.386 1.37-.488 2.083l-1.323.333-.072 2.103 1.297.423c.053.723.173 1.428.344 2.11l-1.094.808.743 1.975 1.354-.109c.323.639.702 1.246 1.126 1.817l-.7 1.17 1.441 1.538 1.21-.62c.54.463 1.12.884 1.735 1.255l-.202 1.343 1.92.87.886-1.03c.67.217 1.365.38 2.083.488l.327 1.317 2.109.072.416-1.291c.724-.059 1.428-.173 2.112-.345l.807 1.09 1.975-.739-.103-1.353c.639-.328 1.24-.708 1.816-1.133l1.165.702 1.544-1.437-.62-1.214c.463-.54.883-1.12 1.249-1.736l1.343.202.876-1.92-1.036-.88c.217-.67.386-1.365.488-2.084l1.317-.332zM114.178 64.195c-.66 1.202-2.175 1.645-3.377.986-1.202-.661-1.64-2.174-.979-3.376.66-1.202 2.167-1.639 3.37-.98 1.202.661 1.646 2.168.986 3.37zm7.169.552l.153-1.422-.855-.348c-.003-.488-.045-.973-.126-1.444l.779-.495-.396-1.375-.926.008c-.186-.45-.406-.88-.666-1.287l.528-.757-.894-1.112-.853.355c-.34-.338-.707-.65-1.108-.93l.206-.906-1.253-.687-.655.661c-.45-.191-.914-.331-1.38-.438l-.157-.91-1.422-.16-.348.854c-.49.003-.967.052-1.445.134l-.494-.787-1.376.403.007.925c-.443.187-.874.407-1.287.666l-.757-.534-1.113.894.356.852c-.331.341-.65.708-.931 1.108l-.9-.2-.687 1.253.655.648c-.184.456-.33.914-.438 1.386l-.91.151-.154 1.422.854.354c-.003.482.046.967.127 1.438l-.786.494.403 1.376.925-.001c.187.443.407.874.667 1.28l-.534.757.893 1.119.86-.362c.34.337.707.65 1.108.93l-.207.905 1.254.688.654-.655c.45.185.915.325 1.38.432l.158.91 1.422.16.348-.855c.482-.002.966-.05 1.445-.132l.494.785 1.37-.403-.001-.924c.443-.187.874-.407 1.287-.666l.75.534 1.12-.894-.362-.852c.337-.34.65-.708.937-1.108l.899.2.688-1.253-.655-.648c.184-.456.324-.914.431-1.38l.918-.157z"/>
        <path fill="#FFF" d="M118.361 45.52c-2.222-.076-3.957-1.94-3.88-4.156.075-2.222 1.934-3.958 4.156-3.882 2.222.076 3.957 1.935 3.882 4.157-.077 2.216-1.936 3.958-4.158 3.882zm11.139-5.432l-1.683-1.163v-.003c-.167-.612-.397-1.2-.677-1.754l.43-1.692-2.44-2.613-1.718.314c-.532-.318-1.103-.587-1.701-.794l-.004-.001-1.045-1.76-3.574-.122-1.163 1.682-.006.002c-.61.167-1.198.396-1.75.676l-1.692-.431-2.614 2.441.314 1.715-.001.001c-.324.538-.587 1.11-.795 1.707l-1.758 1.045-.123 3.574 1.684 1.163c.167.616.389 1.203.675 1.761l-.43 1.687 2.441 2.614 1.708-.312c.539.318 1.11.588 1.716.796h.001l1.043 1.756 3.574.123 1.161-1.681c.619-.167 1.207-.396 1.766-.677l1.684.428 2.614-2.44-.313-1.715c.324-.538.586-1.11.794-1.708l1.76-1.045.122-3.574z"/>
        <path fill="#F9A01B" d="M139.071 8.756c-.14-.79.386-1.543 1.173-1.684.79-.141 1.543.383 1.684 1.173.141.789-.383 1.542-1.173 1.683-.787.141-1.543-.383-1.684-1.172zm2.76 3.517l.282-.681h.002c.202-.106.393-.231.566-.372l.63.024.737-1.059-.241-.582c.072-.212.124-.433.152-.66v-.001l.541-.502-.227-1.27-.681-.282-.001-.003c-.106-.202-.23-.393-.371-.566l.024-.63-1.059-.737-.581.241c-.215-.074-.436-.124-.663-.152l-.501-.541-1.27.227-.283.682c-.204.105-.395.229-.57.372l-.628-.024-.737 1.058.24.579c-.072.214-.124.436-.151.665v.001l-.541.501.227 1.27.681.282c.105.205.23.395.372.572l-.024.626 1.06.737.58-.24c.214.074.436.123.663.15l.501.542 1.27-.227zM125.972 8.5l-.472-.341c.82-.831 1.985-1.884 3.713-2.659l.287.469c-1.843.825-3.023 2.02-3.528 2.531M130.736 5.5l-.236-.634c2.256-1.116 4.612-1.551 7-1.295l-.055.686c-2.29-.252-4.547.171-6.71 1.243M128.992 9.5l-.492-.323c1.224-1.737 3.644-3.248 5.884-3.677l.116.564c-2.099.403-4.364 1.816-5.508 3.436"/>
        <path fill="#FFF" d="M86.232 47.179c-1.021 1.54-1.38 3.385-1.013 5.197.368 1.81 1.419 3.37 2.96 4.39 3.18 2.108 7.482 1.236 9.588-1.943 2.108-3.18 1.236-7.483-1.943-9.592-3.179-2.107-7.482-1.233-9.592 1.948m5.758 11.299c-1.419 0-2.853-.402-4.121-1.243-1.666-1.104-2.802-2.79-3.2-4.748-.398-1.958-.009-3.953 1.095-5.619 2.282-3.438 6.934-4.382 10.37-2.105 3.437 2.28 4.38 6.933 2.101 10.37-1.437 2.17-3.819 3.345-6.245 3.345m-2.76 1.816c.026 0 .053.004.078.012.602.176 1.227.293 1.86.345.067.006.13.036.178.085l1.143 1.178 3.312-.672.595-1.534c.025-.064.072-.116.132-.147.563-.294 1.095-.643 1.581-1.04.051-.041.109-.07.181-.062l1.949.029 1.867-2.818-.788-1.787c-.026-.06-.03-.128-.012-.191.177-.613.293-1.239.345-1.86.006-.067.036-.13.085-.178l1.178-1.143-.671-3.313-1.532-.593c-.065-.025-.118-.074-.15-.137-.291-.561-.64-1.09-1.038-1.574-.042-.052-.065-.116-.064-.183l.03-1.95-2.818-1.868-1.783.786c-.06.027-.128.031-.191.014-.609-.178-1.237-.294-1.866-.347-.067-.005-.13-.035-.178-.083l-1.141-1.177-3.313.672-.594 1.53c-.024.064-.072.117-.132.148-.56.29-1.091.641-1.581 1.04-.052.042-.12.072-.183.065l-1.947-.03-1.868 2.818.787 1.785c.034.077.031.164-.006.239-.158.56-.274 1.187-.326 1.815-.006.067-.036.13-.085.178l-1.178 1.143.672 3.312 1.53.594c.068.026.123.078.154.144.29.557.639 1.085 1.035 1.567.042.05.065.117.064.183l-.03 1.949 2.818 1.869 1.788-.789c.035-.016.074-.024.112-.024m3.165 2.206c-.075 0-.148-.03-.202-.085L91.015 61.2c-.599-.056-1.192-.166-1.765-.328l-1.835.809c-.087.04-.188.03-.268-.023l-3.074-2.038c-.08-.053-.127-.142-.125-.238l.03-2c-.373-.465-.706-.97-.991-1.503l-1.575-.611c-.089-.034-.155-.112-.174-.205l-.732-3.615c-.02-.093.01-.19.08-.257l1.212-1.176c.057-.597.167-1.19.328-1.769l-.808-1.831c-.038-.089-.03-.189.023-.27l2.037-3.073c.053-.08.128-.129.239-.126l1.999.031c.47-.375.974-.708 1.504-.99l.61-1.576c.035-.09.113-.155.207-.174l3.614-.733c.093-.018.19.012.257.08l1.175 1.212c.598.055 1.192.167 1.77.328l1.832-.808c.087-.038.188-.029.268.023l3.074 2.038c.08.053.127.142.126.238l-.031 2.002c.374.465.707.97.99 1.501l1.576.612c.09.034.155.111.174.205l.732 3.614c.02.094-.01.191-.08.258l-1.213 1.177c-.055.59-.166 1.182-.328 1.764l.81 1.835c.038.088.029.19-.024.269l-2.037 3.073c-.053.08-.137.12-.238.126l-2-.03c-.466.371-.971.703-1.502.987l-.612 1.579c-.035.089-.113.154-.207.174l-3.613.732c-.02.004-.038.006-.056.006"/>
        <g transform="translate(135.5 27.5)">
            <mask id="5m85qka6fd" fill="#fff">
                <use xlink:href="#cijkt5s3kc"/>
            </mask>
            <path fill="#F9A01B" d="M19.226 41.112l21.76-19.773L38 43.64l-18.775-2.527zm44.586 6l-8.81-1.186 5.826-43.55-17-2.287-41.236 37.85L.425 54.131l35.532 4.781-1.772 13.244 17 2.287L52.957 61.2l8.811 1.185 2.044-15.274z" mask="url(#5m85qka6fd)"/>
        </g>
        <path fill="#1A2E35" d="M180.788 101.5c-.017 0-.035-.002-.052-.004-.156-.028-.26-.174-.231-.325l13.424-71.444c.029-.15.18-.245.335-.224.156.028.26.174.231.325l-13.424 71.443c-.026.135-.147.229-.283.229M192.5 31.017c-.01.276-.241.492-.517.483-.276-.01-.492-.241-.483-.517.01-.276.241-.492.517-.483.276.01.492.242.483.517M190.5 41.017c-.01.276-.241.492-.517.483-.276-.01-.492-.241-.483-.517.01-.276.241-.492.517-.483.276.01.492.242.483.517M189.5 50.017c-.01.276-.241.492-.517.483-.276-.01-.492-.241-.483-.517.01-.276.241-.491.517-.483.276.01.492.242.483.517M185.5 60.017c-.01.276-.241.492-.517.483-.276-.01-.492-.241-.483-.517.01-.276.241-.492.517-.483.276.01.492.241.483.517M185.5 70.017c-.01.276-.241.492-.517.483-.276-.01-.492-.241-.483-.517.01-.276.241-.492.517-.483.276.01.492.242.483.517M183.5 79.017c-.01.276-.241.492-.517.483-.276-.01-.492-.241-.483-.517.01-.276.241-.492.517-.483.276.01.492.242.483.517M181.5 89.017c-.01.276-.241.492-.517.483-.276-.01-.492-.241-.483-.517.01-.276.241-.492.517-.483.276.01.492.242.483.517M179.5 99.017c-.01.276-.241.492-.517.483-.276-.01-.492-.241-.483-.517.01-.276.241-.491.517-.483.276.01.492.242.483.517"/>
        <path fill="#1A2E35" d="M184.787 60.5c-.132 0-.252-.104-.28-.258-.034-.176.064-.35.22-.388l1.426-.347c.157-.036.307.073.34.25.034.176-.065.35-.22.388l-1.426.348c-.02.004-.04.007-.06.007M189.5 55.5s-1.181 3.365-1.578 5.404c-.398 2.04-.422 6.596-.422 6.596"/>
        <path fill="#1A2E35" d="M186.813 67.5h-.002c-.173-.001-.312-.125-.311-.277.001-.179.034-4.398.507-6.349.472-1.945 1.83-5.066 1.887-5.198.062-.141.243-.212.405-.158.161.055.242.214.18.356-.014.032-1.398 3.214-1.86 5.115-.459 1.896-.493 6.194-.493 6.237 0 .152-.14.274-.313.274"/>
    </g>
</svg>
