<svg xmlns="http://www.w3.org/2000/svg"  viewBox="0 0 24 24">
    <defs>
        <filter id="42engoctma">
            <feColorMatrix in="SourceGraphic" values="0 0 0 0 1.000000 0 0 0 0 1.000000 0 0 0 0 1.000000 0 0 0 1.000000 0"/>
        </filter>
    </defs>
    <g fill="none" fill-rule="evenodd" filter="url(#42engoctma)" transform="translate(-14 -740)">
        <g>
            <path d="M0 0H24V24H0z" transform="translate(14 740)"/>
            <g fill="#F9A01B" fill-rule="nonzero">
                <path d="M9.024 7.497c-.522 0-.893.22-.893.544v4.417c0 .278.37.556.893.556.498 0 .904-.278.904-.556V8.04c0-.324-.406-.544-.904-.544zM9.024 4.521c-.534 0-.951.44-.951.948 0 .507.417.961.95.961.522 0 .94-.454.94-.961 0-.507-.418-.948-.94-.948z" transform="translate(14 740) translate(3 2)"/>
                <path d="M9.023 0C4.036 0 0 4.034 0 9.018c0 4.07 2.68 7.45 6.292 8.597l2.053 3.025c.152.225.407.36.678.36.272 0 .527-.135.68-.36l2.051-3.025c3.615-1.148 6.293-4.529 6.293-8.597C18.047 4.031 14.007 0 9.023 0zm1.806 15.495c-.169.047-.316.151-.414.295l-1.392 2.026-1.39-2.026c-.1-.144-.246-.248-.415-.295-2.784-.769-4.876-3.298-4.876-6.354 0-3.638 2.997-6.598 6.681-6.598 3.685 0 6.682 2.96 6.682 6.598 0 3.059-2.096 5.586-4.876 6.354z" transform="translate(14 740) translate(3 2)"/>
            </g>
        </g>
    </g>
</svg>
