<svg xmlns="http://www.w3.org/2000/svg" width="144" height="123" viewBox="0 0 144 123">
    <g fill="none" fill-rule="evenodd">
        <path fill="#101010" d="M0 0H414V896H0z" transform="translate(-135 -282)"/>
        <g>
            <path fill="#CB7F0E" d="M35.99 52.6l17.513-17.334L34.43 16.388c-4.828-4.778-12.684-4.778-17.513 0-4.829 4.78-4.829 12.556 0 17.335L35.99 52.6m35.564-17.334l-35.564 35.2-28.097-27.81c-9.805-9.704-9.805-25.496 0-35.2 9.805-9.705 25.758-9.705 35.564 0l28.097 27.81" transform="translate(-135 -282) rotate(45 -237.874 390.309)"/>
            <path fill="#F9A01B" d="M17.069 16.52c2.527-2.261 5.846-3.392 9.165-3.392.271 0 .542.007.812.023h-.023c-.264-.014-.527-.02-.79-.02-3.32 0-6.638 1.128-9.164 3.39-2.528 2.26-3.791 5.23-3.791 8.201 0-2.97 1.263-5.94 3.79-8.202z" transform="translate(-135 -282) rotate(45 -237.874 390.309)"/>
            <path fill="#F9A01B" d="M17.853 51.355l-7.922-7.808c-9.786-9.643-9.786-25.334 0-34.978 4.701-4.633 10.82-7.033 16.993-7.214 5.943.174 11.835 2.405 16.462 6.706l.002.003.023.021.007.006.02.018.01.01.017.016.011.01.016.016.014.013.014.013.015.014.013.012.016.016.011.01.019.018.01.01.018.018.01.008.02.02.008.007.021.02.008.007.022.022.006.006.023.022.005.005.024.024.005.004.024.023.005.005.023.023.006.005.024.024.004.003c.008.01.017.017.026.026l.002.002.029.028 8.675 8.55-8.254 8.134-7.923-7.807c-2.409-2.374-5.573-3.56-8.738-3.56-.244 0-.488.008-.732.022-.257-.016-.515-.024-.774-.024-3.165 0-6.33 1.188-8.74 3.562-2.409 2.374-3.613 5.493-3.613 8.612 0 3.12 1.204 6.238 3.614 8.613l8.675 8.55-8.254 8.134" transform="translate(-135 -282) rotate(45 -237.874 390.309)"/>
            <path fill="#F9A01B" d="M63.47 95.77c-5.209 5.125-13.652 5.125-18.859 0L12.74 64.41c-2.325-2.288-2.325-5.998 0-8.286L57.379 12.2c2.325-2.289 6.095-2.289 8.42 0L97.67 43.56c5.208 5.125 5.208 13.433 0 18.557L63.47 95.77z" transform="translate(-135 -282) rotate(45 -237.874 390.309)"/>
            <path fill="#FBFCFC" d="M13.07 55.886l4.43-4.367-4.43 4.367M26.472 42.67L43.883 25.5 26.472 42.67m26.384-26.02l4.428-4.366c.225-.223.464-.423.714-.601-.25.179-.488.378-.714.6l-4.428 4.368" transform="translate(-135 -282) rotate(45 -237.874 390.309)"/>
            <path fill="#DEE9EF" d="M16.898 52.933l.761-.761-.761.76m26.775-26.774l.761-.761-.76.761" transform="translate(-135 -282) rotate(45 -237.874 390.309)"/>
            <path fill="#BBDCEF" d="M18.399 51.432l8.264-8.264-8.264 8.264m26.518-26.518l8.264-8.265-8.264 8.265" transform="translate(-135 -282) rotate(45 -237.874 390.309)"/>
            <path fill="#E49217" d="M51.335 98.333h-2.047c-1.773-.627-3.437-1.645-4.857-3.056l-31.31-31.118c-1.141-1.135-1.712-2.624-1.712-4.111 0-1.489.57-2.976 1.713-4.112l30.56-30.374.744-.74 12.548-12.47c.223-.222.46-.422.707-.6 1.02-.734 2.222-1.1 3.425-1.1.344 0 .688.03 1.027.09-1.14.2-2.233.734-3.114 1.61L15.167 55.936c-2.284 2.27-2.284 5.952 0 8.223l31.31 31.118c1.42 1.411 3.085 2.43 4.858 3.056" transform="translate(-135 -282) rotate(45 -237.874 390.309)"/>
            <path fill="#F3AE46" d="M20.93 59.149c1.133 1.131 1.133 2.967 0 4.099-1.131 1.131-2.966 1.131-4.099 0-1.131-1.132-1.131-2.968 0-4.1 1.133-1.132 2.968-1.132 4.1 0M63.972 17.132c1.132 1.132 1.132 2.967 0 4.1-1.132 1.13-2.967 1.13-4.1 0-1.131-1.133-1.131-2.968 0-4.1 1.133-1.133 2.968-1.133 4.1 0M97.278 49.413c1.131 1.132 1.131 2.967 0 4.099-1.132 1.132-2.968 1.132-4.099 0-1.133-1.132-1.133-2.967 0-4.1 1.131-1.131 2.967-1.131 4.099 0M57.311 89.38c1.132 1.132 1.132 2.967 0 4.099-1.132 1.132-2.967 1.132-4.099 0-1.133-1.132-1.133-2.967 0-4.1 1.132-1.132 2.967-1.132 4.1 0" transform="translate(-135 -282) rotate(45 -237.874 390.309)"/>
            <path fill="#123144" d="M69.708 62.815l-5.516 5.325c-1.361 1.315-3.612 1.163-4.77-.321l-9.8-12.551 6.754-6.521 12.999 9.461c1.537 1.12 1.694 3.293.333 4.607" transform="translate(-135 -282) rotate(45 -237.874 390.309)"/>
            <path fill="#123144" d="M58.848 43.776c3.962 3.962 3.962 10.385 0 14.347-3.961 3.962-10.385 3.962-14.347 0-3.962-3.962-3.962-10.385 0-14.347 3.962-3.962 10.386-3.962 14.347 0" transform="translate(-135 -282) rotate(45 -237.874 390.309)"/>
        </g>
    </g>
</svg>
