<svg xmlns="http://www.w3.org/2000/svg" xmlns:xlink="http://www.w3.org/1999/xlink" width="116" height="29" viewBox="0 0 116 29">
    <defs>
        <path id="prefix__a" d="M0.245 0.018L0.369 0.018 0.369 0.263 0.245 0.263z"/>
    </defs>
    <g fill="none" fill-rule="evenodd">
        <path fill="#D73D95" d="M25 12L71 12 71 0 25 0z"/>
        <g>
            <path fill="#FEFEFE" d="M37.607 3.097c.52 0 1.017.224 1.363.617l.604-.544c-.5-.567-1.217-.891-1.968-.89-1.452 0-2.632 1.196-2.63 2.663 0 1.468 1.183 2.66 2.635 2.66.75 0 1.467-.327 1.966-.894l-.605-.543c-.346.393-.842.619-1.362.62-1.006 0-1.825-.827-1.826-1.843 0-1.017.817-1.845 1.823-1.846M52.147 7.59c.75 0 1.466-.326 1.966-.893l-.605-.543c-.346.393-.842.619-1.362.619-1.006.001-1.825-.826-1.826-1.843-.001-1.017.817-1.845 1.823-1.845.52 0 1.017.224 1.363.617l.604-.545c-.5-.566-1.218-.89-1.968-.89-1.452.001-2.632 1.196-2.63 2.664 0 1.468 1.183 2.66 2.635 2.66M47.088.1L46.279.101 46.286 7.455 47.094 7.454zM48.705.099L47.896.1 47.903 7.454 48.711 7.453zM55.578 4.926c0-1.017.817-1.845 1.824-1.846 1.006 0 1.825.826 1.826 1.843 0 1.017-.817 1.845-1.823 1.846-1.006 0-1.826-.826-1.827-1.843m3.652 1.913v.605h.809L60.035 2.4h-.81l.001.606c-.474-.46-1.117-.744-1.825-.743-1.452 0-2.632 1.196-2.631 2.664.001 1.467 1.184 2.66 2.636 2.66.707-.001 1.35-.286 1.824-.748M66.293 3.073c1.006-.001 1.825.825 1.826 1.842 0 1.017-.817 1.845-1.823 1.846-1.006.001-1.826-.826-1.827-1.842 0-1.018.817-1.845 1.824-1.846m.004 4.506c.708 0 1.35-.286 1.824-.747v.605h.809L68.924.081h-.81L68.118 3c-.474-.46-1.117-.744-1.825-.744-1.452.001-2.632 1.196-2.631 2.664.001 1.468 1.183 2.66 2.636 2.66M61.651 4.616c.022-.246.108-.76.455-1.12.27-.28.66-.423 1.16-.423v-.818c-.66 0-1.202.187-1.616.553v-.41h-.81l.005 5.045h.809l-.003-2.827zM42.874 3.092c.716 0 1.336.418 1.636 1.025l-3.27.003c.299-.608.919-1.027 1.634-1.028zm2.635 1.842c-.001-1.467-1.183-2.66-2.636-2.66-1.452.002-2.632 1.197-2.63 2.665 0 1.467 1.183 2.66 2.635 2.66 1.086-.002 2.046-.662 2.446-1.683l-.752-.3c-.277.707-.942 1.164-1.695 1.165-1.006 0-1.825-.826-1.826-1.843l4.458-.004zM25.961 7.475h.944c.068-3.534 2.88-6.389 6.33-6.392l-.002-.97c-3.976.002-7.205 3.286-7.272 7.362" transform="translate(0 2)"/>
            <path fill="#FEFEFE" d="M27.565 7.474l.944-.001c.068-2.624 2.16-4.738 4.727-4.74l-.001-.972c-3.092.003-5.602 2.548-5.67 5.713" transform="translate(0 2)"/>
            <path fill="#FEFEFE" d="M29.167 7.472h.944c.068-1.715 1.444-3.09 3.126-3.09V3.41c-2.207.002-4.002 1.809-4.07 4.062" transform="translate(0 2)"/>
            <path fill="#FEFEFE" d="M30.77 7.47h.946c.067-.804.724-1.439 1.523-1.44l-.001-.97c-1.322 0-2.4 1.068-2.468 2.41" transform="translate(0 2)"/>
            <path fill="#F8A01B" d="M24.423 20.344c-1.485 0-2.682-1.182-2.724-2.687V2.67h-1.58v15.01c.045 2.349 1.976 4.26 4.304 4.26h.329v-1.597h-.329zM27.18 16.581c0 2.158 1.737 3.914 3.872 3.914 2.16 0 3.897-1.756 3.897-3.914v-.176c-.074-2.082-1.787-3.763-3.897-3.763-2.135 0-3.873 1.781-3.873 3.94m.1 3.838c-1.018-1.029-1.59-2.409-1.59-3.839 0-1.455.572-2.81 1.59-3.839.992-1.029 2.358-1.606 3.773-1.606 1.44 0 2.93.603 3.897 1.731v-1.73h1.49v10.859h-1.49V20.32l-.1.1c-.992 1.003-2.357 1.58-3.797 1.58-1.415 0-2.78-.577-3.774-1.58M47.304 11.136L41.325 26.871 39.736 26.871 41.644 21.775 37.473 11.136 39.087 11.136 42.438 19.717 45.715 11.136z" transform="translate(0 2)"/>
            <g transform="translate(0 2) translate(0 22.409)">
                <mask id="prefix__b" fill="#fff">
                    <use xlink:href="#prefix__a"/>
                </mask>
                <path fill="#FEFEFE" d="M.245.197h.003C.248.159.245.122.245.084v.113z" mask="url(#prefix__b)"/>
            </g>
            <path fill="#D73D95" d="M9.912 20.695c-.02-.165-.032-.332-.032-.503 0-.667.16-1.296.442-1.852l-.026.002c-.543.517-.943 1.184-1.137 1.936-.055.214-.094.433-.114.658-.011.122-.017.245-.017.369 0 .099.004.196.011.293.013.067.023.136.033.204.064-.45.456-.801.942-.833l-.06.001c-.017-.09-.03-.182-.042-.275M4.16 5.235c-.343 0-.677.035-1 .101-1.105.229-2.075.83-2.78 1.666-.093.11-.181.225-.265.344l-.007.01v.377l.04-.039c.275-.27.585-.503.923-.692.347-.194.723-.34 1.12-.43.24-.055.489-.091.743-.104.192-.657.76-1.152 1.454-1.228-.076-.003-.152-.005-.228-.005" transform="translate(0 2)"/>
            <path fill="#0097DB" d="M9.159 20.278c.194-.752.594-1.42 1.137-1.936-.15.01-.3.017-.451.017H9.84c-.335 0-.67.045-.984.165-.407.155-.783.376-1.114.648-.417.342-.765.767-1.019 1.25-.264.5-.427 1.065-.463 1.663-.004.082-.008.163-.008.246l.003.136c.01.323-.058.646-.231.917-.305.479-.836.796-1.441.796-.93 0-1.686-.75-1.713-1.683L2.865 7.002l-.002-.043c0-.17.025-.335.07-.49-.253.012-.501.048-.742.103-.397.09-.773.236-1.12.43-.338.189-.648.422-.923.692l-.04.039V22.446l.001.05C.136 24.989 2.142 27 4.613 27c1.282 0 2.437-.541 3.257-1.41.773-.817 1.249-1.924 1.249-3.144 0-.12-.006-.237-.015-.354-.016-.079-.028-.158-.039-.238-.01-.085-.02-.17-.026-.256-.007-.097-.011-.194-.011-.293 0-.124.006-.247.017-.369.02-.225.06-.444.114-.658" transform="translate(0 2)"/>
            <path fill="#F8A01B" d="M9.845 2.417H4.666v.001C2.172 2.454.156 4.484.11 7.002l-.002.089v.265l.007-.01c.084-.118.172-.233.265-.344.705-.837 1.675-1.437 2.78-1.666.323-.066.657-.101 1-.101.076 0 .152.002.228.005l5.457-.01c.477 0 .94.054 1.388.153 2.92.643 5.106 3.269 5.106 6.412 0 1.694-.634 3.238-1.677 4.402-.36.402-.767.758-1.214 1.06-.79.533-1.703.895-2.686 1.036-.145.02-.292.036-.44.047-.282.556-.442 1.185-.442 1.852 0 .17.012.338.032.503.012.093.025.185.042.275l.06-.001c1.3-.024 2.535-.32 3.65-.836.867-.402 1.66-.935 2.357-1.575.338-.312.654-.649.943-1.008 1.288-1.597 2.06-3.635 2.06-5.856 0-5.124-4.11-9.278-9.18-9.278" transform="translate(0 2)"/>
        </g>
        <path fill="#0097DC" fill-rule="nonzero" d="M51.923 23c.582 0 1.104-.13 1.567-.388.463-.258.824-.635 1.082-1.13v1.405h1.276v-8.124H54.54v4.587c0 .764-.221 1.38-.662 1.85-.442.468-1.023.702-1.745.702-.613 0-1.071-.173-1.373-.517-.301-.345-.452-.883-.452-1.615v-5.007H49v5.04c0 1.054.248 1.851.743 2.39.495.538 1.222.807 2.18.807zm7.753-.113v-4.651c0-.786.226-1.411.678-1.874.452-.463 1.055-.694 1.809-.694.646 0 1.12.175 1.421.524.302.35.452.902.452 1.656v5.039h1.309v-5.104c0-2.142-.975-3.214-2.924-3.214-.635 0-1.2.143-1.696.428-.495.286-.866.692-1.114 1.22l-.13-1.454h-1.243c.086.678.13 1.438.13 2.277v5.847h1.308zm9.448 0v-9.972h-1.308v9.972h1.308zm4.005-8.401V13H71.53v1.486h1.6zm-.161 8.4v-7h-1.309v7h1.309zm3.844 0v-4.634c0-.797.196-1.427.59-1.89.392-.463.933-.694 1.622-.694.592 0 1.023.175 1.292.524.27.35.404.902.404 1.656v5.039h1.308v-4.635c0-.797.194-1.427.582-1.89.387-.463.926-.694 1.615-.694.592 0 1.02.172 1.284.516.264.345.395.9.395 1.664v5.039h1.309v-5.104c0-2.142-.9-3.214-2.698-3.214-.602 0-1.144.143-1.623.428-.479.286-.842.67-1.09 1.155-.194-.538-.495-.937-.904-1.195-.41-.258-.937-.388-1.583-.388-.592 0-1.112.14-1.559.42-.446.28-.783.679-1.009 1.195l-.13-1.42h-1.243c.086.677.13 1.437.13 2.276v5.847h1.308zM91.17 12.81v-1.486h-1.6v1.486h1.6zm-.162 10.078v-8.124H89.7v8.124h1.308zm5.443.113c.42 0 .797-.054 1.13-.162v-1.114c-.28.097-.57.145-.872.145-.452 0-.802-.12-1.05-.363-.247-.242-.371-.665-.371-1.268v-4.441h2.326v-1.034h-2.326v-2.552l-1.308.469v2.083h-1.583v1.034h1.583v4.619c0 .85.218 1.494.654 1.93.436.436 1.042.654 1.817.654zm6.331 0c.581 0 1.15-.097 1.704-.29.554-.195 1.01-.458 1.365-.792l-.436-.953c-.797.635-1.67.953-2.617.953-.894 0-1.575-.264-2.043-.791-.468-.528-.708-1.309-.719-2.342h5.96v-.243c0-1.238-.307-2.21-.92-2.915-.614-.705-1.46-1.058-2.536-1.058-.743 0-1.405.178-1.987.533-.581.356-1.033.854-1.356 1.494-.324.64-.485 1.376-.485 2.205 0 1.303.36 2.328 1.082 3.077.721.748 1.717 1.122 2.988 1.122zm2.035-5.071h-4.732c.118-.743.39-1.32.815-1.728.426-.41.978-.614 1.656-.614.678 0 1.208.199 1.59.597.383.399.606.98.671 1.745zM111.1 23c.635 0 1.192-.137 1.671-.412.48-.274.837-.665 1.074-1.17v1.469h1.292V11h-1.308v5.136c-.237-.495-.592-.88-1.066-1.155-.474-.274-1.028-.412-1.663-.412-.711 0-1.34.173-1.89.517-.55.345-.972.832-1.268 1.462-.296.63-.444 1.365-.444 2.204 0 .84.15 1.58.452 2.221.302.64.724 1.139 1.268 1.494s1.171.533 1.882.533zm.258-1.082c-.797 0-1.419-.277-1.865-.832-.447-.554-.67-1.332-.67-2.334 0-.98.223-1.739.67-2.277.446-.538 1.068-.807 1.865-.807.797 0 1.41.271 1.841.815.43.544.646 1.311.646 2.302 0 1.001-.215 1.774-.646 2.317-.43.544-1.044.816-1.841.816z"/>
    </g>
</svg>
