<svg xmlns="http://www.w3.org/2000/svg" xmlns:xlink="http://www.w3.org/1999/xlink" width="164" height="199" viewBox="0 0 164 199">
    <defs>
        <path id="bob6tvh4za" d="M0 0.109L23.805 0.109 23.805 24.83 0 24.83z"/>
        <path id="h3uhzt4yvc" d="M0 198.5L164 198.5 164 0.5 0 0.5z"/>
    </defs>
    <g fill="none" fill-rule="evenodd">
        <path fill="#E28758" d="M26.688 158.523c-2.296-1.312-4.67-2.636-7.04-4.023C9.983 166.73 2 177.461 2 177.461l6.9 6.039L31 161.062c-1.436-.847-2.86-1.71-4.312-2.54"/>
        <g transform="translate(0 173.5)">
            <mask id="v73szqgbkb" fill="#fff">
                <use xlink:href="#bob6tvh4za"/>
            </mask>
            <path fill="#143C4A" d="M.488 5.462c-.771-.736-.56-2.575.158-3.36.55-.601 1.18-1.134 1.867-1.58.335-.215.703-.416 1.103-.413.491.001.923.308 1.281.634 2.29 2.088 3.181 5.416 5.872 6.98.562-1.056 1.516-1.906 2.64-2.361.44-.178.933-.297 1.388-.163 1.046.307 1.262 1.625 1.382 2.685.451 4.004 2.272 7.85 5.104 10.781.643.667 1.342 1.292 1.854 2.063.512.767.824 1.72.588 2.606-.237.887-1.146 1.63-2.07 1.476L.487 5.462z" mask="url(#v73szqgbkb)"/>
        </g>
        <path fill="#F9A01B" d="M57 89.713c0 .36 0 .736-.016 1.128 0 .517 0 1.065-.015 1.63-.124 14.552-.479 43.673-1.127 45.287-.849 2.146-33.706 33.742-33.706 33.742l-.324-.345-8.04-8.38-.772-.8 26.56-33.037L33.804 73.5l15.572 5.404 1.605.549 2.515.877C55.78 82.899 57.03 86.25 57 89.713"/>
        <path fill="#FCC574" d="M58 90.939c0 .495 0 1.022-.016 1.561-1.33-.224-2.515-.794-3.554-1.696C51.006 87.8 50.195 81.857 50 79.5l1.688.525c.26 2.462 1.12 7.313 3.862 9.684.73.644 1.541 1.066 2.45 1.23M36.791 131.789L36 157.5 44 150.172 37.905 130.5zM21 170.5L20.278 151.5 17 155.187z"/>
        <path fill="#E28758" d="M26.4 159.02c-2.089-1.151-4.243-2.316-6.4-3.52.998 19.403 2.98 39 2.98 39H34.42L35 163.91c-2.838-1.66-5.703-3.293-8.6-4.89"/>
        <path fill="#143C4A" d="M24.224 198.328c-1.078-.03-2.203-1.522-2.223-2.575-.014-.807.077-1.616.274-2.4.095-.38.226-.772.521-1.036.362-.324.894-.385 1.386-.384 3.136.014 6.109 1.87 9.177 1.231-.322-1.148-.215-2.405.297-3.486.198-.423.48-.836.906-1.04.983-.47 2.06.356 2.885 1.055 3.121 2.644 7.138 4.263 11.26 4.538.937.063 1.889.058 2.799.283.912.224 1.804.718 2.248 1.527.444.81.292 1.958-.495 2.459l-29.035-.172z"/>
        <path fill="#F9A01B" d="M47 78.645l-9.086 17.103-2.459 84.752H21.388s-2.976-68.133-3.368-85.754c-.392-17.62 5.107-24.246 5.107-24.246l2.35.799 1.488.501 3.728 1.284 1.504.517L47 78.645z"/>
        <path fill="#FCC574" d="M32 73.8c-.529 2.906-1.763 7.471-4.379 9.458-.881.657-1.836.985-2.865.985-.176 0-.353-.048-.514-.062-.426 2.798-.72 5.862-.764 9.066-.133 9.538 1.337 52.435 2.13 75.48.22 6.458.353 9.913.353 11.773h-1.41c-.074-2.112-.221-6.396-.397-11.725-.809-23.06-2.278-65.975-2.146-75.543.133-9.553 2.454-17.916 3.688-21.732l1.396.502c-.72 2.22-1.807 6.002-2.6 10.662.822.063 1.572-.158 2.262-.69 2.263-1.718 3.365-6.034 3.835-8.69L32 73.8z"/>
        <path fill="#E28758" d="M100.727 82.5L102 76.082l-36.5-6.488c-2.978-.549-5.86 1.364-6.436 4.277-.576 2.91 2.844 4.66 5.824 5.21l35.839 3.419z"/>
        <path fill="#E28758" d="M101.879 75.661s10.603-1.583 15.903 5.17c.426.543.2 1.39-.439 1.562-2.635.712-9.096 2.008-16.343.15l.879-6.882z"/>
        <path fill="#FFF" d="M48 41.926l9.466-1.352c3.874-.554 7.5 2.055 8.255 5.94l4.292 22.067L88 72.908l-2.532 9.229S61.775 85.1 58.113 74.089C54.453 63.076 48 41.926 48 41.926"/>
        <path fill="#E28758" d="M47 29.117L54.379 35.5 58.842 32.562 63 18.751 53.357 15.5z"/>
        <path fill="#C26144" d="M61 26.385s-4.819-1.88-6-4.885c0 0 1.01 6.725 5.16 8l.84-3.115z"/>
        <path fill="#FFF" d="M66.838 51.126C65.95 53.938 53.904 80.5 53.904 80.5L24 70.331l7.386-28.085c1.231-4.642 4.566-8.446 9.007-10.278 1.512-.62 2.946-1.133 4.13-1.521.67-.233 1.262-.42 1.745-.573.842-.25 1.356-.374 1.356-.374l7.355 5.837 4.239-1.894c.249.25.514.513.748.777.374.388.716.791 1.06 1.212 4.55 5.636 6.59 13.21 5.812 15.694"/>
        <path fill="#143C4A" d="M61 35.164L53.873 38.5 44 30.084c.69-.236 1.3-.426 1.798-.584l8.347 7.135 5.763-2.705c.386.395.739.805 1.092 1.234"/>
        <path fill="#E28758" d="M85.602 82.5L87 75.945l-36.399-7.328c-2.971-.62-5.892 1.289-6.524 4.263-.633 2.972 2.755 4.83 5.725 5.449l35.8 4.171z"/>
        <path fill="#E28758" d="M86.056 75.61s11.243-1.352 16.724 5.427c.442.546.188 1.377-.493 1.536-2.8.649-9.654 1.8-17.287-.18l1.056-6.783z"/>
        <path fill="#FFF" d="M34 41.52l16.657-2.02 5.176 28.969L74 73.117l-2.741 9.139s-24.096 2.504-27.604-8.529C40.15 62.696 34 41.52 34 41.52"/>
        <path fill="#EAEAEA" d="M34.853 46.5L42 71.5s-13.906-9.158-7.147-25"/>
        <path fill="#E28758" d="M71.29 8.345c-3.09-4.503-9.609-4.677-13.073-4.84-1.41-.07-2.777.65-3.606 1.918-.657 1.01-1.344 2.134-1.928 3.348-.353-.134-.754-.18-1.22-.026-1.67.548-2.095 4.422-.298 6.289.023.94.166 1.903.473 2.886 2.089 6.65 10.712 11.055 14 9.122.826-.49 1.698-1.921 2.549-3.796.504-1.128 1.005-2.408 1.475-3.746 1.263-3.592 1.626-5.43 2.189-7.61.319-1.236.124-2.543-.561-3.545"/>
        <path fill="#C26144" d="M65 13.5c-.367.428-.587 1.086-.679 1.747-.098.667-.08 1.347-.017 2.003.034.332.091.646.089.896.006.243-.068.458-.198.654-.263.388-.733.48-1.195.342.368.39.978.536 1.439.053.225-.215.39-.617.408-1.02.018-.396-.046-.713-.069-1.018-.067-.617-.101-1.233-.086-1.846.02-.61.104-1.215.308-1.811"/>
        <path fill="#523329" d="M63.969 12.752c-.145-.354-.358-.572-.61-.736-.254-.152-.536-.24-.822-.264-.286-.038-.58.044-.836.19-.263.128-.474.37-.655.61-.062.082-.062.216.001.296.048.06.117.076.174.044l.019-.01c.215-.116.42-.218.624-.254.203-.054.403-.032.597.012.396.082.72.44 1.15.586l.058.02c.14.048.286-.062.323-.246.017-.086.006-.174-.023-.248M67.168 14.13c.32.18.65.16.925.356.136.093.267.203.374.364.112.153.201.343.291.551l.007.016c.035.078.112.107.172.061.045-.033.068-.1.062-.162-.025-.263-.066-.546-.182-.79-.105-.25-.256-.487-.446-.643-.185-.163-.391-.285-.603-.35-.216-.054-.427-.051-.647.078-.103.063-.15.224-.103.357.023.065.061.114.107.139l.043.024z"/>
        <path fill="#C26144" d="M63 20.432c-.51-.184-.968-.362-1.284-.67-.163-.146-.285-.328-.368-.542-.095-.214-.135-.456-.206-.72-.11.243-.173.52-.127.803.028.284.18.563.394.77.219.2.49.333.767.388.276.056.56.057.824-.029"/>
        <path fill="#523329" d="M61.136 15.301c-.272.54-.106 1.07.37 1.179.478.11 1.086-.24 1.358-.78.272-.541.106-1.069-.37-1.18-.478-.11-1.086.24-1.358.781M66.136 17.3c-.272.541-.106 1.069.37 1.18.478.11 1.086-.24 1.358-.781.272-.54.106-1.07-.37-1.179-.478-.11-1.084.24-1.358.78"/>
        <path fill="#C26144" d="M51 9.93c.166-.216.394-.252.588-.192.197.058.355.232.486.439.255.434.435.993.56 1.539.03.135.136.212.235.168.091-.04.145-.166.128-.292-.06-.47-.316-.786-.566-.978-.129-.1-.269-.171-.428-.199-.156-.031-.346.007-.487.16-.277.301-.322.802-.205 1.177.121.373.355.61.595.748-.194-.24-.362-.523-.409-.835-.052-.29.043-.624.196-.741.14-.124.36-.033.556.127.195.155.342.391.38.636l.363-.124c-.15-.61-.36-1.19-.716-1.658-.175-.225-.418-.401-.67-.405-.243-.01-.503.144-.606.43"/>
        <path fill="#523329" d="M71.414 13.348c.171-4.015-3.041-1.756-4.663-1.642-1.622.112-1.101-1.796-2.636-2.884-1.535-1.087-2.84.414-2.84.414s-2.32 2.358-4.69 3.467c-.506.236-1.107.019-1.337-.477-.404-.87-1.134-2.196-2.112-2.956-1.067-.832-2.577-.467-3.209.71-.556 1.037-.865 2.725.678 5.005 0 0 .32 2.608.735 3.515-1.443-.677-2.539-2.066-3-3.557-.608-1.96-.323-4.12.247-6.044.45-1.513 1.157-2.952 2.077-4.248.496-.7 1.082-1.35 1.84-1.76.853-.458 1.966-.555 2.78-.037 3.556-1.156 7.228-1.571 10.963-1.248 1.453.125 2.913.368 4.234.967 1.321.598 2.498 1.583 3.081 2.883.458 1.02.524 2.179.348 3.281-.175 1.102-.582 2.155-1.045 3.175-.567 1.252-1.224 2.474-2.105 3.54l.654-2.104z"/>
        <mask id="lqpcr09u1d" fill="#fff">
            <use xlink:href="#h3uhzt4yvc"/>
        </mask>
        <path fill="#4759A1" d="M158 198.5L164 198.5 164 86.5 158 86.5z" mask="url(#lqpcr09u1d)"/>
        <path fill="#4759A1" d="M158 102.5L164 102.5 164 94.5 158 94.5zM105 198.5L111 198.5 111 86.5 105 86.5z" mask="url(#lqpcr09u1d)"/>
        <path fill="#4759A1" d="M105 102.5L111 102.5 111 94.5 105 94.5z" mask="url(#lqpcr09u1d)"/>
        <path fill="#6376BF" d="M77 198.5L83 198.5 83 86.5 77 86.5z" mask="url(#lqpcr09u1d)"/>
        <path fill="#6376BF" d="M77 102.5L83 102.5 83 94.5 77 94.5zM130 198.5L136 198.5 136 86.5 130 86.5z" mask="url(#lqpcr09u1d)"/>
        <path fill="#6376BF" d="M130 102.5L136 102.5 136 94.5 130 94.5z" mask="url(#lqpcr09u1d)"/>
        <path fill="#6376BF" d="M77 95.5L164 95.5 164 86.5 77 86.5z" mask="url(#lqpcr09u1d)"/>
        <path fill="#6376BF" d="M77 89.5L164 89.5 164 87.5 77 87.5z" mask="url(#lqpcr09u1d)"/>
        <path fill="#1B5063" d="M88 86.5L128 86.5 128 83.5 88 83.5z" mask="url(#lqpcr09u1d)"/>
        <path fill="#143C4A" d="M110 86.5L145 86.5 145 83.5 110 83.5zM145.08 83.5H110l2.961-22.64c.102-.778.754-1.36 1.524-1.36h31.977c.93 0 1.648.836 1.524 1.774L145.08 83.5z" mask="url(#lqpcr09u1d)"/>
    </g>
</svg>
