<svg xmlns="http://www.w3.org/2000/svg" width="60" height="60" viewBox="0 0 60 60">
    <defs>
        <linearGradient id="rf258vesla" x1="49.418%" x2="50%" y1="-112.491%" y2="100%">
            <stop offset="0%" stop-color="#EE04E8"/>
            <stop offset="100%" stop-color="#04CBEE"/>
        </linearGradient>
    </defs>
    <g fill="none" fill-rule="evenodd">
        <path d="M0 0H60V60H0z"/>
        <g transform="translate(5.82 11.642)">
            <path fill="#F9A01B" d="M.804 31.153c1.792 6.822 38.333 7.75 42.028.657 3.36-6.447-.935-22.37-3.807-26.973C37.153 1.839 29.662.54 22.009.54 13.656.54 5.11 2.087 3.457 4.66.505 9.261-1.053 24.08.804 31.153z"/>
            <path fill="url(#rf258vesla)" d="M41.902 0c-7.99 12.599-7.867 18.898.37 18.898 8.236 0 8.113-6.3-.37-18.898z"/>
            <path fill="#101010" fill-rule="nonzero" d="M15.286 28.818c.115.48.598.777 1.08.662 4.172-1 9.143-1.349 14.91-1.042.494.026.916-.353.942-.847.026-.494-.353-.915-.847-.942-5.929-.315-11.069.046-15.423 1.09-.48.115-.777.598-.662 1.079z"/>
            <ellipse cx="12.09" cy="14.579" fill="#000" rx="1.881" ry="2.16"/>
            <ellipse cx="30.896" cy="14.579" fill="#000" rx="1.881" ry="2.16"/>
        </g>
    </g>
</svg>
