<svg xmlns="http://www.w3.org/2000/svg" width="109" height="108" viewBox="0 0 109 108">
    <g fill="none" fill-rule="evenodd">
        <path d="M0 0H108V108H0z"/>
        <g transform="translate(0 21.761)">
            <rect width="85.433" height="50.776" y="6.448" fill="#F9A01B" rx="23"/>
            <g transform="translate(18.537 6.448)">
                <g fill="#FFF" fill-rule="nonzero">
                    <path d="M14.91 0C8.947 0 4.127 5.183 4.127 11.517v3.707c0 2.078-.525 4.118-1.517 5.896L.247 25.352c-.32.57-.33 1.277-.024 1.86.321.609.941.997 1.625.997h26.125c.684 0 1.304-.388 1.624-.996.306-.584.298-1.29-.024-1.864l-2.36-4.23c-.992-1.777-1.517-3.817-1.517-5.895v-3.707C25.696 5.183 20.876 0 14.91 0z" transform="translate(56.418)"/>
                    <path d="M14.911 2.418c4.722 0 8.6 4.076 8.6 9.117v3.68l.012.567c.09 2.263.717 4.47 1.83 6.421l2.05 3.588H2.418l2.05-3.587c1.206-2.114 1.843-4.53 1.843-6.988v-3.68c0-5.042 3.878-9.118 8.6-9.118z" transform="translate(56.418)"/>
                    <path d="M17.095 25.949c-.549.317-.768 1.003-.523 1.582l.078.155c.165.276.256.61.256.938 0 1.051-.887 1.927-1.996 1.927-1.108 0-1.995-.876-1.995-1.927 0-.262.058-.528.166-.766l.09-.172c.358-.61.151-1.391-.44-1.735-.579-.325-1.3-.14-1.643.437-.4.674-.61 1.447-.61 2.236 0 2.45 1.995 4.42 4.43 4.42 2.436 0 4.432-1.97 4.435-4.42 0-.79-.21-1.562-.61-2.235-.346-.578-1.069-.763-1.638-.44z" transform="translate(56.418)"/>
                </g>
                <circle cx="4.836" cy="24.985" r="4.836" fill="#000"/>
                <circle cx="24.985" cy="24.985" r="4.836" fill="#000"/>
                <circle cx="45.134" cy="24.985" r="4.836" fill="#000"/>
            </g>
            <path fill="#F9A01B" d="M33.507 56.185L42.716 64.245 51.016 56.185z"/>
            <path stroke="#FFF" stroke-linecap="round" stroke-width="2" d="M96.716 2.418c4.836.824 7.254 4.048 7.254 9.672M103.164 0C106.388.55 108 2.699 108 6.448"/>
        </g>
    </g>
</svg>
