<svg xmlns="http://www.w3.org/2000/svg" width="108" height="108" viewBox="0 0 108 108">
    <g fill="none" fill-rule="evenodd">
        <path d="M0 0H108V108H0z"/>
        <g>
            <path fill="#F9A01B" d="M1.441 54.562c3.213 12.16 68.72 13.812 75.343 1.17 6.023-11.489-1.676-39.87-6.825-48.074C66.603 2.315 53.174 0 39.454 0 24.481 0 9.164 2.756 6.197 7.346.905 15.545-1.888 41.954 1.441 54.562z" transform="translate(14.507 21.358)"/>
            <path fill="#171819" fill-rule="nonzero" d="M45.499 24.812c6.723-6.95 13.511-6.776 19.495.534.505.617.414 1.526-.204 2.03-.617.506-1.528.415-2.033-.203-4.875-5.955-9.645-6.077-15.18-.355-.555.573-1.47.589-2.044.035-.573-.554-.589-1.468-.034-2.041zM13.41 24.812c6.723-6.95 13.511-6.776 19.495.534.505.617.414 1.526-.204 2.03-.617.506-1.528.415-2.033-.203-4.875-5.955-9.645-6.077-15.18-.355-.555.573-1.47.589-2.044.035-.573-.554-.589-1.468-.034-2.041z" transform="translate(14.507 21.358)"/>
            <path fill="#101010" fill-rule="nonzero" d="M21.044 37.177c-1.475.61-2.176 2.298-1.566 3.771 3.821 9.226 10.488 13.906 19.853 13.906 9.312 0 16.224-4.622 20.612-13.748.24-.5.332-1.058.263-1.608-.198-1.582-1.642-2.705-3.225-2.507l-7.488.933c-6.64.828-13.356.813-19.991-.042l-6.983-.9c-.5-.065-1.01.002-1.475.195z" transform="translate(14.507 21.358)"/>
            <path fill="#FFF" fill-rule="nonzero" d="M22.272 38.89l6.983.9c6.796.877 13.676.892 20.476.044l7.488-.933c.528-.066 1.01.308 1.075.836.023.183-.007.369-.087.535C54.13 48.75 47.88 52.93 39.33 52.93c-8.568 0-14.543-4.194-18.073-12.717-.203-.49.03-1.054.522-1.257.156-.064.325-.087.492-.065z" transform="translate(14.507 21.358)"/>
            <path fill="#101010" fill-rule="nonzero" d="M24.034 44.571l1.21.197c8.96 1.424 15.5 1.602 19.57.56.515-.132 1.04.178 1.172.693.132.515-.178 1.04-.694 1.171-4.573 1.171-11.748.92-21.576-.723-.525-.087-.879-.583-.791-1.108.082-.486.515-.826.997-.802l.112.012z" transform="translate(14.507 21.358)"/>
        </g>
    </g>
</svg>
