<svg xmlns="http://www.w3.org/2000/svg" width="108" height="108" viewBox="0 0 108 108">
    <g fill="none" fill-rule="evenodd">
        <path d="M0 0H108V108H0z"/>
        <g fill-rule="nonzero">
            <path fill="#F8991D" d="M66.09 33.045c0 18.25-14.795 33.045-33.045 33.045S0 51.295 0 33.045 14.795 0 33.045 0 66.09 14.795 66.09 33.045" transform="translate(20.955 20.955)"/>
            <path fill="#F5A63F" d="M33.719 0c.584 0 1.166.015 1.744.043C17.65.933 3.488 15.368 3.488 33.045c0 17.676 14.163 32.111 31.975 33.001-.578.029-1.16.044-1.744.044C15.097 66.09 0 51.295 0 33.045S15.097 0 33.719 0" transform="translate(20.955 20.955)"/>
            <path fill="#FFF" d="M29.523 44.172h-.014c-.96-.003-1.874-.411-2.507-1.118l-6.666-7.446c-.61-.682-.913-1.557-.851-2.461.061-.904.48-1.73 1.178-2.327 1.44-1.232 3.637-1.089 4.897.32l3.974 4.472 14.371-15.814c1.27-1.4 3.47-1.524 4.9-.281.693.601 1.105 1.431 1.16 2.336.054.904-.256 1.776-.872 2.453L32.027 43.073c-.635.699-1.548 1.1-2.504 1.1" transform="translate(20.955 20.955)"/>
            <path fill="#D98414" d="M32.37 0c-.584 0-1.165.015-1.743.043C48.438.933 62.6 15.368 62.6 33.045c0 17.676-14.163 32.111-31.974 33.001.578.029 1.16.044 1.744.044 18.622 0 33.719-14.795 33.719-33.045S50.993 0 32.37 0" transform="translate(20.955 20.955)"/>
        </g>
    </g>
</svg>
