<svg xmlns="http://www.w3.org/2000/svg" width="55" height="55" viewBox="0 0 55 55">
    <g fill="none" fill-rule="evenodd">
        <path d="M0 0H55V55H0z"/>
        <g>
            <g fill="#C47A0B" fill-rule="nonzero">
                <path d="M23.99 6.036v6.113c0 2.097-5.374 3.818-11.926 3.818-6.552 0-11.852-1.677-11.852-3.774l-.01-.684-.064-4.833C1.104 8.463 5.968 9.82 11.82 9.82c6.553 0 12-1.7 12-3.796h.17v.01z" transform="translate(1 9) translate(29 21)"/>
                <path d="M23.99.022v6.014h-.16c0 2.096-5.448 3.796-12 3.796C5.98 9.832 1.104 8.474.15 6.687L.127 5.374.064.386C.786 2.262 5.777 3.708 11.83 3.708c6.457 0 11.894-1.656 12.032-3.708l.127.022z" transform="translate(1 9) translate(29 21)"/>
            </g>
            <path fill="#F9A01B" fill-rule="nonzero" d="M29.096 21.938c-.064-.143-.096-.285-.096-.438 0-.122.021-.244.064-.356.607-1.76 5.627-3.134 11.765-3.144h.086C47.49 18 53 19.567 53 21.5c0 .03 0 .05-.01.081C52.84 23.484 47.393 25 40.914 25c-6.086 0-11.094-1.343-11.82-3.063z" transform="translate(1 9)"/>
            <g fill="#D83D96" fill-rule="nonzero">
                <path d="M23.958 12.486v.152c-6.08.01-11.06 1.47-11.673 3.34l-.507-.26c-1.205 0-2.358-.053-3.447-.161l-.285.054c-.529-2.627-1.903-4.93-3.817-6.606l.095-.108c2.03.52 4.631.844 7.454.844 6.523 0 11.99-1.676 11.99-3.73h.18v6.475h.01z" transform="translate(1 9) translate(16 5)"/>
                <path d="M23.958.022V6h-.18c0 2.054-5.466 3.73-11.99 3.73-2.833 0-5.423-.314-7.453-.844l-.095.109C3.056 7.945 1.66 7.145.127 6.659l.032-.108L.01.25c.401 1.946 5.519 3.48 11.788 3.48 6.523 0 11.99-1.675 11.99-3.729l.169.022z" transform="translate(1 9) translate(16 5)"/>
            </g>
            <path fill="#F9A01B" fill-rule="nonzero" d="M27.915 1C34.49 1 40 2.575 40 4.495 40 6.425 34.49 8 27.915 8c-6.31 0-11.467-1.443-11.883-3.271-.021-.082-.032-.153-.032-.234C16 2.575 21.329 1 27.915 1z" transform="translate(1 9)"/>
            <g fill="#D83D96" fill-rule="nonzero">
                <path d="M7.926 7.285l.063 4.651-.589.01c-2.768 0-5.221-.286-7.21-.785l-.148-.149c1.505-1.38 2.642-3.154 3.263-5.16h.284c1.169.127 2.422.18 3.716.18l.6-.01.021 1.263z" transform="translate(1 9) translate(21 21)"/>
                <path d="M7.853 1.232l.063 4.8-.6.01c-1.305 0-2.548-.063-3.716-.18h-.295c.337-1.094.516-2.251.516-3.462 0-.807-.084-1.593-.232-2.347L3.874 0c1.084.106 2.242.16 3.431.16l.506.254c-.043.128-.064.244-.064.372 0 .138.042.297.106.446z" transform="translate(1 9) translate(21 21)"/>
            </g>
            <path fill="#F9A01B" fill-rule="nonzero" d="M24.76 20.572c.152.776.24 1.586.24 2.417 0 1.247-.186 2.44-.536 3.566-.645 2.068-1.827 3.894-3.391 5.316C18.94 33.808 16.107 35 13 35 6.371 35 1 29.618 1 23s5.382-12 12-12c1.236 0 2.428.186 3.555.536 1.586.492 3.03 1.302 4.255 2.363 1.991 1.673 3.413 4.014 3.95 6.673z" transform="translate(1 9)"/>
            <path stroke="#000" stroke-linecap="round" stroke-width="2" d="M9.422 16.58c-2.122.529-3.413 2.678-2.884 4.8" transform="translate(1 9)"/>
            <path fill="#000" fill-rule="nonzero" d="M49.55 17.496c-2.171-.66-4.901-1.05-7.91-1.125V4.826c0-.292-.108-.563-.29-.758-.399-1.212-1.828-2.196-4.246-2.932C34.685.4 31.536 0 28.214 0c-3.31 0-6.438.4-8.802 1.136-1.946.606-4.278 1.731-4.278 3.668 0 .14.01.26.032.357l.118 4.934c-.795-.151-1.601-.227-2.418-.227C5.772 9.868 0 15.678 0 22.819c0 7.142 5.772 12.952 12.866 12.952 2.966 0 5.815-1.028 8.104-2.9 2.02.476 4.396.736 6.911.758C28.43 36.626 34.89 38 40.908 38c3.31 0 6.428-.411 8.814-1.158C51.69 36.236 54 35.1 54 33.163v-11.89c0-.217-.043-.412-.15-.585-.28-1.33-1.71-2.402-4.3-3.192zm-19.637 9.965l-.043-3.419c2.536 1.331 6.804 1.937 10.802 1.937 3.267 0 6.374-.39 8.77-1.104.968-.292 1.774-.616 2.42-.984v2.705c0 .162-.14.357-.14.573 0 .152-.495.887-2.806 1.602-2.203.67-5.127 1.038-8.244 1.038-5.847 0-9.835-1.309-10.76-2.348zm-12.468-16.75l-.076-3.05c.635.335 1.408.638 2.322.898 2.332.681 5.353 1.05 8.524 1.05 3.32 0 6.47-.401 8.878-1.137.956-.292 1.752-.627 2.397-.995v2.705c-.108.173-.172.378-.172.606 0 .14-.505.887-2.838 1.601-2.182.67-5.202 1.05-8.265 1.05-2.655 0-5.256-.282-7.32-.812-.032-.01-.065-.01-.086-.022-1.032-.779-2.15-1.428-3.364-1.893zm10.77 4.913c3.32 0 6.47-.4 8.878-1.136.956-.292 1.752-.628 2.397-.995v2.889c-2.687.075-5.213.422-7.223.995-1.903.541-3.225 1.233-3.977 2.077h-.086c-1.043 0-2.032-.043-2.956-.119-.398-1.439-1.053-2.813-1.913-4.025 1.537.206 3.17.314 4.88.314zm-2.548 5.908c.634.043 1.29.065 1.967.076.01.075.032.151.054.227l.043 3.603c-.774-.01-1.537-.043-2.257-.097.161-.834.247-1.678.247-2.532 0-.422-.022-.844-.054-1.277zm-.795 5.94c.924.076 1.892.13 2.891.14-.021.12-.021.25 0 .38l.043 3.484c-1.784-.022-3.482-.174-5.009-.433.882-1.082 1.58-2.283 2.075-3.57zm26.903-6.308v.01c-.01.163-.537.91-2.923 1.624-2.204.66-5.117 1.017-8.18 1.017-2.848 0-5.59-.325-7.696-.898-2.02-.552-2.891-1.19-3.15-1.558-.01-.098-.02-.195-.053-.292.183-.336.989-.996 3.085-1.58 2.107-.595 4.847-.92 7.728-.92h.086c3.074 0 6.084.357 8.266 1.028 2.257.682 2.805 1.385 2.837 1.569zM20.014 3.214c2.17-.671 5.084-1.05 8.18-1.05 3.062 0 6.083.379 8.275 1.05 2.343.714 2.849 1.45 2.849 1.6 0 .142-.505.888-2.849 1.602-2.182.671-5.202 1.05-8.265 1.05-2.967 0-5.783-.346-7.922-.974-2.31-.67-2.966-1.417-3.02-1.655 0-.022-.022-.033-.022-.033 0-.227.72-.952 2.774-1.59zm.053 27.58c-1.977 1.807-4.536 2.813-7.212 2.813-5.912 0-10.716-4.836-10.716-10.788 0-5.95 4.804-10.787 10.716-10.787 1.075 0 2.139.162 3.17.476 1.409.444 2.688 1.158 3.806 2.132 1.795 1.547 3.052 3.678 3.525 6.005.14.725.215 1.46.215 2.174 0 1.093-.161 2.175-.483 3.203-.56 1.829-1.602 3.473-3.02 4.772zm29.021 3.982c-2.193.681-5.095 1.06-8.19 1.06-3.107 0-5.998-.368-8.158-1.028-2.053-.638-2.741-1.352-2.741-1.59v-.022l-.01-.66-.033-2.445c.73.367 1.623.692 2.676.973 2.257.595 5.106.92 8.04.92 3.321 0 6.438-.4 8.846-1.136.785-.238 1.687-.563 2.332-.985v3.311c0 .14-.473.888-2.762 1.602z" transform="translate(1 9)"/>
        </g>
    </g>
</svg>
