<svg xmlns="http://www.w3.org/2000/svg" width="55" height="55" viewBox="0 0 55 55">
    <g fill="none" fill-rule="evenodd">
        <g transform="translate(9 7)">
            <path fill="#D83D96" fill-rule="nonzero" d="M24.185 11.72c1.417 0 2.6 1.094 2.724 2.517l2.08 23.786c.141 1.613-1.118 3-2.724 3H3.701c-1.605 0-2.865-1.387-2.724-3l2.08-23.786c.126-1.424 1.308-2.516 2.725-2.516h18.403z"/>
            <path fill="#000" fill-rule="nonzero" stroke="#000" stroke-width=".5" d="M25.629 42H3.37C1.394 42-.16 40.237.013 38.192l2.053-24.15c.154-1.82 1.598-3.192 3.358-3.192h2.081V7.263C7.505 3.258 10.643 0 14.5 0s6.995 3.258 6.995 7.263v3.587h2.081c.373 0 .675.313.675.7 0 .387-.302.7-.675.7h-2.081v3.15c0 .387-.302.7-.674.7-.373 0-.675-.313-.675-.7v-3.15H8.342c-.373 0-.675-.313-.675-.7 0-.387.302-.7.675-.7h11.804V7.263c0-3.233-2.533-5.863-5.646-5.863S8.854 4.03 8.854 7.263V15.4c0 .387-.302.7-.675.7-.372 0-.674-.313-.674-.7v-3.15H5.424c-1.056 0-1.922.823-2.015 1.915l-2.053 24.15c-.104 1.23.827 2.285 2.015 2.285H25.63c1.19 0 2.119-1.056 2.015-2.285l-2.053-24.15c-.033-.385.242-.724.613-.758.37-.034.698.25.73.635l2.053 24.15C29.16 40.237 27.605 42 25.629 42z"/>
            <path stroke="#000" stroke-linecap="round" stroke-width="2" d="M23.526 11.548c1.512.115 2.434 1.006 2.766 2.672"/>
            <circle cx="26" cy="31" r="11" fill="#F9A01B" stroke="#000" stroke-width="2"/>
            <path stroke="#000" stroke-linecap="round" stroke-width="2" d="M23.422 25.58c-2.122.529-3.413 2.678-2.884 4.8"/>
        </g>
        <path d="M0 0H55V55H0z"/>
    </g>
</svg>
