<svg xmlns="http://www.w3.org/2000/svg" width="108" height="108" viewBox="0 0 108 108">
    <g fill="none" fill-rule="evenodd">
        <rect width="108" height="108" rx="28"/>
        <path fill="#87878A" fill-rule="nonzero" d="M77.875 51.1l-4.248-8.677c1.269-1.287 2.294-2.811 3.006-4.489 3.102-7.308-.32-15.78-7.629-18.881-6.825-2.897-14.666-.104-18.198 6.232-.25.448-.479.913-.684 1.396-.115.272-.222.547-.32.824l-.002.005c-.065.182.105.361.29.305l6.003-1.812c.041-.013.078-.037.107-.069.655-.739 1.417-1.363 2.25-1.86 2.542-1.518 5.75-1.846 8.679-.603 4.872 2.068 7.154 7.715 5.085 12.588-.245.579-.546 1.13-.897 1.646l-.887-1.813c-1.275-2.603-3.446-4.66-6.115-5.793-2.668-1.133-5.657-1.266-8.415-.374l-1.493.483c-.269.086-.467.316-.512.595-.137.86-.157 1.736-.056 2.603.294 2.53 1.58 4.806 3.508 6.367.108.088.266.061.349-.051.657-.894 1.873-1.244 2.933-.758 1.19.546 1.692 1.974 1.18 3.18l-1.822 4.294c-.505 1.19-1.854 1.825-3.066 1.377-1.294-.478-1.912-1.934-1.38-3.19.047-.108.008-.232-.09-.296-3.51-2.32-5.884-6.106-6.38-10.368-.039-.335-.065-.67-.08-1.006-.022-.495-.508-.833-.979-.68l-8.223 2.658c-2.65.857-4.795 2.82-5.884 5.384L19.717 73.742c-1.554 3.66.154 7.887 3.814 9.441l30.93 13.129c3.66 1.553 7.887-.154 9.44-3.815L78.09 59.072c1.088-2.565 1.01-5.47-.215-7.973zm-37.901 2.56c1.034-2.436 3.857-3.576 6.294-2.542 2.436 1.034 3.577 3.857 2.543 6.294-1.034 2.436-3.858 3.577-6.294 2.543-2.437-1.034-3.577-3.858-2.543-6.294zM35.95 75.42c-.474-.202-.887-.556-1.157-1.04-.645-1.159-.23-2.62.928-3.266l23.904-13.318c1.158-.645 2.62-.23 3.265.928.645 1.158.23 2.62-.928 3.265L38.058 75.307c-.673.375-1.449.391-2.107.112zm15.466 6.564c-2.436-1.034-3.577-3.857-2.543-6.293 1.034-2.437 3.858-3.578 6.294-2.543 2.436 1.034 3.577 3.857 2.543 6.294-1.034 2.436-3.858 3.577-6.294 2.542z"/>
    </g>
</svg>
