<svg xmlns="http://www.w3.org/2000/svg" width="108" height="108" viewBox="0 0 108 108">
    <g fill="none" fill-rule="evenodd">
        <rect width="108" height="108" rx="28"/>
        <g fill="#87878A" fill-rule="nonzero" transform="translate(14 14)">
            <path d="M42.3 25.589v-7.33c0-2.394 1.949-4.342 4.343-4.342 2.395 0 4.343 1.948 4.343 4.343 0 5.013 4.078 9.091 9.092 9.091h.287c5.171 0 9.378-4.207 9.378-9.379V0h-4.665v17.972c0 2.6-2.114 4.714-4.713 4.714h-.287c-2.441 0-4.426-1.986-4.426-4.426 0-4.968-4.042-9.009-9.009-9.009-4.967 0-9.008 4.041-9.008 9.009v7.333c.776-.087 1.56-.132 2.35-.132.777 0 1.55.043 2.315.128zM18.479 48.735L23.144 48.735 23.144 53.4 18.479 53.4z"/>
            <circle cx="58.862" cy="51.068" r="2.333"/>
            <path d="M79.316 63.542L72.09 42.7c-1.198-3.88-3.98-7.116-7.638-8.88-3.673-1.771-7.955-1.928-11.748-.431-.586.231-1.155.499-1.703.8-1.12-.996-2.363-1.83-3.693-2.487-2.254-1.112-4.756-1.71-7.324-1.71-2.441 0-4.821.544-6.987 1.552-1.451.676-2.807 1.559-4.017 2.635-.543-.298-1.105-.562-1.684-.79-3.793-1.497-8.075-1.34-11.748.43-3.659 1.765-6.44 5-7.638 8.881L.684 63.542c-.974 2.81-.906 5.878.193 8.641s3.156 5.041 5.793 6.414C8.486 79.542 10.448 80 12.393 80c3.435 0 6.816-1.429 9.23-4.121l12.439-13.87c.974-1.086 2.22-1.872 3.589-2.294v-5.65h4.665v5.64c-.744-.226-1.524-.347-2.316-.347-.804 0-1.595.124-2.35.357v4.695h4.666v-4.705c1.382.42 2.64 1.209 3.622 2.304l12.438 13.87c3.782 4.215 9.93 5.333 14.953 2.718 2.637-1.373 4.695-3.651 5.794-6.414 1.099-2.763 1.167-5.832.193-8.64zM27.81 53.4h-4.666v4.666H18.48V53.4h-4.666v-4.665h4.666V44.07h4.665v4.665h4.666V53.4zm17.644-7.093h-10.94V41.64h10.94v4.666zm13.408 11.759c-3.859 0-6.998-3.14-6.998-6.998 0-3.86 3.14-6.999 6.998-6.999 3.859 0 6.998 3.14 6.998 6.999 0 3.859-3.14 6.998-6.998 6.998z"/>
        </g>
    </g>
</svg>
