<svg xmlns="http://www.w3.org/2000/svg" width="108" height="108" viewBox="0 0 108 108">
    <g fill="none" fill-rule="evenodd">
        <rect width="108" height="108" rx="28"/>
        <g fill="#87878A" fill-rule="nonzero">
            <path d="M20.25 15C17.355 15 15 17.356 15 20.25c0 2.204 1.392 4.188 3.465 4.939L29 29l-3.811-10.537C24.437 16.392 22.453 15 20.249 15zM51 20.25c0-2.894-2.356-5.25-5.25-5.25-2.204 0-4.188 1.392-4.939 3.465L37 29l10.537-3.811c2.071-.752 3.463-2.735 3.463-4.94z" transform="translate(11 26)"/>
            <path d="M36 18.24l.603-1.64C38.055 12.65 41.9 10 46.166 10c5.607 0 10.166 4.485 10.166 10 0 4.197-2.695 7.979-6.706 9.407L47.958 30H87V0H36v18.24zM17.229 29.407c-4.057-1.428-6.781-5.21-6.781-9.407 0-5.515 4.608-10 10.276-10 4.313 0 8.199 2.652 9.666 6.597l.61 1.64V0H0v30h18.914l-1.685-.593zM50.117 41.42L47.298 45.58 36 38.172 36 56 87 56 87 36 41.853 36zM31 38.172L19.58 45.58 16.73 41.42 25.083 36 0 36 0 56 31 56z" transform="translate(11 26)"/>
        </g>
    </g>
</svg>
