<svg xmlns="http://www.w3.org/2000/svg" width="108" height="108" viewBox="0 0 108 108">
    <g fill="none" fill-rule="evenodd">
        <rect width="108" height="108" rx="28"/>
        <g fill="#87878A" fill-rule="nonzero">
            <path d="M69.102 42.82c-.334 1.748-1.823 3.02-3.607 3.1-.562.024-1.04.45-1.147 1.028-.114.578.167 1.163.676 1.408 1.617.791 2.521 2.563 2.18 4.31l-.32 1.662c-.417 2.19-2.741 3.559-4.777 3.037-.57-.143-1.154-.253-1.731-.372-.85-.174-1.701-.356-2.552-.53-1.124-.237-2.248-.466-3.372-.704-1.336-.277-2.68-.561-4.017-.838-1.496-.317-2.992-.625-4.488-.941-1.595-.332-3.197-.665-4.792-1.005-1.64-.34-3.281-.688-4.914-1.028l-4.868-1.02-4.647-.973c-1.42-.293-2.833-.593-4.253-.886-1.23-.253-2.46-.514-3.684-.767l-2.946-.617-2.028-.427c-.311-.063-.623-.135-.934-.198-.015 0-.03-.008-.046-.008.168.823.092 1.7-.273 2.523-.767 1.724-2.552 2.626-4.268 2.278-.509-.103-1.063.095-1.283.585l-.684 1.543c-.22.49 0 1.06.403 1.4.076.063 54.815 26.346 54.907 26.37.508.102 1.063-.096 1.283-.586l.683-1.542c.22-.49 0-1.06-.402-1.4-1.367-1.131-1.868-3.132-1.101-4.857.767-1.724 2.551-2.625 4.268-2.277.509.102 1.063-.095 1.283-.586l.684-1.542c.22-.49 0-1.06-.403-1.4-1.367-1.131-1.868-3.132-1.101-4.856.767-1.724 2.552-2.626 4.268-2.278.509.103 1.063-.095 1.283-.585l.684-1.543c.22-.49 0-1.06-.403-1.4-1.367-1.13-1.868-3.132-1.1-4.856.766-1.724 2.55-2.626 4.267-2.278.509.103 1.063-.095 1.284-.585l.751-1.709c.22-.49.016-1.067-.455-1.297l-8.18-3.93-.128.577z" transform="translate(15 13)"/>
            <path d="M.734 38.431c.091.048 59.183 12.394 59.281 12.394.517-.023 1.018-.356 1.117-.878l.319-1.66c.098-.53-.236-1.037-.707-1.266-1.58-.775-2.513-2.594-2.156-4.461.356-1.867 1.898-3.172 3.645-3.25.516-.024 1.017-.357 1.116-.879l.236-1.218.083-.45c.099-.53-.235-1.037-.706-1.266-1.58-.775-2.514-2.594-2.157-4.46.357-1.867 1.899-3.173 3.645-3.252.517-.023 1.018-.356 1.117-.878l.319-1.66c.098-.53-.236-1.037-.707-1.266-1.58-.775-2.513-2.594-2.156-4.46.357-1.867 1.898-3.172 3.645-3.252.516-.023 1.018-.356 1.116-.878l.357-1.842c.099-.53-.228-1.044-.736-1.147C67.405 12.402 8.025 0 7.964 0c-.44 0-.828.324-.92.783l-.356 1.843c-.099.53.235 1.036.706 1.265 1.58.775 2.514 2.595 2.157 4.461-.357 1.867-1.899 3.172-3.645 3.25-.517.025-1.018.357-1.117.879l-.319 1.66c-.098.53.236 1.037.707 1.266 1.58.775 2.514 2.595 2.157 4.461-.357 1.867-1.899 3.172-3.646 3.25-.516.025-1.017.357-1.116.879l-.32 1.66c-.098.53.236 1.037.707 1.266 1.58.775 2.514 2.595 2.157 4.461-.357 1.867-1.899 3.172-3.645 3.251-.517.024-1.018.356-1.117.878l-.319 1.66c-.106.53.228 1.03.699 1.258zM51.35 18.16c.205-1.068 1.208-1.764 2.233-1.55 1.025.213 1.693 1.257 1.488 2.325l-2.506 12.987-1.541 8.004c-.183.942-.972 1.59-1.861 1.59-.122 0-.25-.016-.372-.04-1.025-.213-1.694-1.257-1.489-2.325l1.724-8.93L51.35 18.16zm-34.235-7.158c.205-1.068 1.207-1.764 2.233-1.55 1.025.213 1.693 1.257 1.488 2.325l-.866 4.485-.98 5.085-.789 4.097-1.405 7.324c-.182.942-.972 1.59-1.86 1.59-.122 0-.251-.016-.373-.04-.053-.007-.106-.023-.151-.039-.942-.285-1.527-1.273-1.33-2.286l.281-1.479.737-3.828 3.015-15.684z" transform="translate(15 13)"/>
        </g>
    </g>
</svg>
